<svg width="134" height="134" viewBox="0 0 134 134" fill="none" xmlns="http://www.w3.org/2000/svg">
<circle cx="67" cy="67" r="65.5" fill="#E4E4E7" stroke="#98A2B3" stroke-width="3"/>
<path d="M84.1102 46.8981C84.1102 56.2307 76.5448 63.7964 67.2121 63.7964C57.8795 63.7964 50.314 56.2307 50.314 46.8981C50.314 37.5655 57.8795 30 67.2121 30C75.9616 30 83.1576 36.6494 84.0231 45.1704C84.0806 45.7384 84.1102 46.3148 84.1102 46.8981Z" fill="#8B96A5"/>
<path d="M37.5701 91.5069C41.2608 80.8352 50.1437 67.4492 67.2113 67.4492C84.2788 67.4492 93.162 80.8352 96.8525 91.5069C98.1011 95.1175 97.2096 98.5647 95.0463 101.057C92.9152 103.513 89.6021 105.001 85.987 105.001H48.4356C44.8204 105.001 41.5074 103.513 39.3763 101.057C37.213 98.5647 36.3214 95.1175 37.5701 91.5069Z" fill="#8B96A5"/>
</svg>
