<svg width="34" height="34" viewBox="0 0 34 34" fill="none" xmlns="http://www.w3.org/2000/svg">
<circle cx="17" cy="17" r="16" fill="#F3F3F3" stroke="#8B96A5" stroke-width="2"/>
<path d="M9.68421 12.3684C9.68421 11.4383 10.4383 10.6842 11.3684 10.6842H20.6316C21.0967 10.6842 21.4737 10.3072 21.4737 9.84211C21.4737 9.37702 21.0967 9 20.6316 9H11.3684C9.50809 9 8 10.5081 8 12.3684V21.6316C8 23.4919 9.50809 25 11.3684 25H23.1579C25.0182 25 26.5263 23.4919 26.5263 21.6316V14.8947C26.5263 14.4297 26.1493 14.0526 25.6842 14.0526C25.2191 14.0526 24.8421 14.4297 24.8421 14.8947V20.1579L21.1057 15.4873C20.0375 14.1522 17.9794 14.2415 17.0309 15.6642L15.5789 17.8421L15.0219 17.4072C14.2487 16.944 13.2479 17.1716 12.7511 17.9237L10.3842 21.5065C10.2023 21.782 10.1053 22.1048 10.1053 22.4349V22.4737C10.1053 22.5767 10.1145 22.6775 10.1322 22.7754C9.85416 22.4751 9.68421 22.0732 9.68421 21.6316V12.3684Z" fill="#CC257A"/>
<path d="M11.5225 13.8828C11.9277 14.0178 12.2456 14.3357 12.3806 14.7408C12.518 15.1531 13.1012 15.1531 13.2387 14.7408C13.3737 14.3357 13.6916 14.0178 14.0967 13.8828C14.509 13.7453 14.509 13.1621 14.0967 13.0247C13.6916 12.8897 13.3737 12.5718 13.2387 12.1666C13.1012 11.7543 12.518 11.7543 12.3806 12.1666C12.2456 12.5718 11.9277 12.8897 11.5225 13.0247C11.1102 13.1621 11.1102 13.7453 11.5225 13.8828Z" fill="#CC257A"/>
<path d="M24.8421 9.84211C24.8421 9.37702 24.4651 9 24 9C23.5349 9 23.1579 9.37702 23.1579 9.84211V10.6842H22.3158C21.8507 10.6842 21.4737 11.0612 21.4737 11.5263C21.4737 11.9914 21.8507 12.3684 22.3158 12.3684H23.1579V13.2105C23.1579 13.6756 23.5349 14.0526 24 14.0526C24.4651 14.0526 24.8421 13.6756 24.8421 13.2105V12.3684H25.6842C26.1493 12.3684 26.5263 11.9914 26.5263 11.5263C26.5263 11.0612 26.1493 10.6842 25.6842 10.6842H24.8421V9.84211Z" fill="#CC257A"/>
</svg>
